<svg width="248" height="240" viewBox="0 0 248 240" fill="none" xmlns="http://www.w3.org/2000/svg">
<g filter="url(#filter0_d_275_7)">
<path d="M112.821 198.178C117.298 204.314 121.194 209.62 124.291 213.788C127.381 209.681 131.262 204.462 135.715 198.429C147.053 183.071 162.018 162.556 176.916 141.966C191.815 121.375 206.626 100.738 217.66 85.1359C223.182 77.3273 227.729 70.8191 230.861 66.2202C231.302 65.574 231.71 64.9714 232.086 64.413C231.324 63.3482 230.457 62.1466 229.503 60.8325C225.836 55.7809 220.982 49.2049 216.095 42.6631C211.207 36.1187 206.315 29.6478 202.57 24.8005C201.184 23.0062 199.977 21.4633 198.997 20.2344C198.221 20.2238 197.345 20.2135 196.373 20.2036C191.985 20.1585 185.773 20.1208 178.332 20.0906C163.456 20.0302 143.73 20 123.998 20C104.266 20 84.5412 20.0302 69.6647 20.0906C62.2234 20.1208 56.0118 20.1585 51.6239 20.2036C50.6733 20.2133 49.8141 20.2234 49.0505 20.2337C48.0443 21.5167 46.8006 23.1328 45.3706 25.0125C41.5631 30.017 36.599 36.6727 31.6552 43.3465C26.7171 50.0129 21.8215 56.6673 18.1589 61.6572C17.5129 62.5374 16.9053 63.3657 16.3427 64.1329C16.6261 64.5291 16.9224 64.9435 17.2314 65.3755C20.4755 69.9114 25.112 76.3916 30.6811 84.1679C41.8198 99.7211 56.6874 120.457 71.6063 141.191C86.5282 161.929 101.49 182.649 112.821 198.178Z" stroke="white" stroke-width="20" shape-rendering="crispEdges"/>
</g>
<defs>
<filter id="filter0_d_275_7" x="0" y="10" width="248" height="228" filterUnits="userSpaceOnUse" color-interpolation-filters="sRGB">
<feFlood flood-opacity="0" result="BackgroundImageFix"/>
<feColorMatrix in="SourceAlpha" type="matrix" values="0 0 0 0 0 0 0 0 0 0 0 0 0 0 0 0 0 0 127 0" result="hardAlpha"/>
<feOffset dy="4"/>
<feGaussianBlur stdDeviation="2"/>
<feComposite in2="hardAlpha" operator="out"/>
<feColorMatrix type="matrix" values="0 0 0 0 0 0 0 0 0 0 0 0 0 0 0 0 0 0 0.03 0"/>
<feBlend mode="normal" in2="BackgroundImageFix" result="effect1_dropShadow_275_7"/>
<feBlend mode="normal" in="SourceGraphic" in2="effect1_dropShadow_275_7" result="shape"/>
</filter>
</defs>
</svg>
